<svg width="153" height="45" viewBox="0 0 153 45" fill="none" xmlns="http://www.w3.org/2000/svg">
<g clip-path="url(#clip0)">
<path d="M15.7462 32.6988C15.6553 32.7879 15.5322 32.8379 15.404 32.8379C15.2757 32.8379 15.1526 32.7879 15.0617 32.6988L10.497 28.2064C9.96601 28.9922 9.5 29.8187 9.10352 30.6779L14.4277 35.9178C14.6869 36.1722 15.038 36.315 15.404 36.315C15.77 36.315 16.121 36.1722 16.3802 35.9178L21.7069 30.6755C21.3115 29.8155 20.8459 28.9886 20.3146 28.2028L15.7462 32.6988Z" fill="white"/>
<path d="M30.6272 21.3345C30.6274 21.156 30.5916 20.9792 30.5221 20.8143C30.4526 20.6494 30.3507 20.4997 30.2222 20.3737L25.1971 15.427C25.1461 15.3775 25.0845 15.3397 25.0168 15.3165C24.9491 15.2932 24.877 15.2851 24.8057 15.2926C24.7345 15.3002 24.6658 15.3232 24.6047 15.3601C24.5435 15.3969 24.4915 15.4467 24.4523 15.5058C24.115 16.0049 23.7691 16.4871 23.4195 16.9487C23.3496 17.0393 23.3156 17.1518 23.3237 17.2652C23.3319 17.3787 23.3817 17.4854 23.4638 17.5654L26.9513 20.9977C26.9964 21.0418 27.0322 21.0943 27.0567 21.1521C27.0811 21.2099 27.0937 21.2719 27.0937 21.3345C27.0937 21.3971 27.0811 21.4591 27.0567 21.5169C27.0322 21.5747 26.9964 21.6271 26.9513 21.6713L22.3965 26.154C22.9391 26.9209 23.4325 27.7205 23.8737 28.548L30.2247 22.2976C30.3528 22.1711 30.4544 22.0208 30.5235 21.8555C30.5925 21.6903 30.6278 21.5132 30.6272 21.3345Z" fill="white"/>
<path d="M3.85677 21.6712C3.81165 21.6271 3.77586 21.5746 3.75143 21.5168C3.727 21.459 3.71442 21.397 3.71442 21.3344C3.71442 21.2718 3.727 21.2098 3.75143 21.152C3.77586 21.0942 3.81165 21.0417 3.85677 20.9976L7.34429 17.5653C7.42613 17.4852 7.47581 17.3787 7.48418 17.2654C7.49255 17.152 7.45905 17.0396 7.38984 16.9486C7.03859 16.4866 6.69389 16.0057 6.35577 15.5057C6.31649 15.4476 6.26473 15.3988 6.20415 15.3626C6.14357 15.3264 6.07564 15.3037 6.00518 15.2962C5.93472 15.2887 5.86345 15.2965 5.79639 15.3191C5.72934 15.3417 5.66815 15.3785 5.61715 15.427L0.592059 20.3737C0.333612 20.6287 0.188477 20.9742 0.188477 21.3344C0.188477 21.6946 0.333612 22.0401 0.592059 22.2952L6.94297 28.5455C7.38421 27.718 7.87759 26.9184 8.42022 26.1515L3.85677 21.6712Z" fill="white"/>
<path d="M17.1635 20.4731C17.2189 20.5167 17.4688 20.7154 17.8492 21.0619C19.8262 19.2446 24.4869 14.3827 24.4869 9.02893C24.4869 6.65791 23.5299 4.384 21.8264 2.70744C20.1228 1.03087 17.8123 0.0889893 15.4031 0.0889893C12.994 0.0889893 10.6835 1.03087 8.97992 2.70744C7.27638 4.384 6.31934 6.65791 6.31934 9.02893C6.31934 14.3912 10.98 19.2446 12.9571 21.0619C13.3387 20.7203 13.5886 20.5167 13.6428 20.4719C14.1426 20.0789 14.7635 19.8649 15.4034 19.8651C16.0432 19.8653 16.6639 20.0797 17.1635 20.4731ZM8.96852 9.02893C8.96852 7.34939 9.64645 5.73864 10.8532 4.55103C12.0599 3.36341 13.6966 2.69622 15.4031 2.69622C17.1097 2.69622 18.7464 3.36341 19.9531 4.55103C21.1598 5.73864 21.8378 7.34939 21.8378 9.02893C21.8378 14.0907 16.175 19.0629 15.4031 19.7183C14.63 19.0629 8.96852 14.0883 8.96852 9.02893Z" fill="white"/>
<path d="M17.8496 21.062C17.4692 20.7215 17.2193 20.5168 17.1639 20.4732C16.6641 20.0799 16.0433 19.8657 15.4035 19.8657C14.7637 19.8657 14.1429 20.0799 13.6431 20.4732C13.589 20.518 13.3391 20.7215 12.9574 21.0632C11.2534 22.5891 9.72583 24.2956 8.4026 26.1516C7.85997 26.9186 7.3666 27.7181 6.92536 28.5456C5.90606 30.4841 5.18714 32.6346 5.18714 34.8662C5.17232 36.1945 5.42535 37.5126 5.9316 38.744C6.43784 39.9754 7.18724 41.0958 8.13642 42.0402C9.0856 42.9847 10.2157 43.7345 11.4613 44.2462C12.7069 44.7579 14.0433 45.0214 15.393 45.0214C16.7428 45.0214 18.0792 44.7579 19.3248 44.2462C20.5704 43.7345 21.7005 42.9847 22.6496 42.0402C23.5988 41.0958 24.3482 39.9754 24.8545 38.744C25.3607 37.5126 25.6138 36.1945 25.5989 34.8662C25.5989 32.6346 24.8788 30.4792 23.8595 28.5456C23.4182 27.7181 22.9249 26.9186 22.3822 26.1516C21.066 24.2963 19.5459 22.5894 17.8496 21.062ZM22.7109 34.8662C22.7235 35.8184 22.5438 36.7636 22.1822 37.6469C21.8206 38.5302 21.2844 39.334 20.6047 40.0118C19.9249 40.6895 19.1152 41.2276 18.2224 41.5949C17.3297 41.9621 16.3717 42.1513 15.4041 42.1513C14.4365 42.1513 13.4785 41.9621 12.5858 41.5949C11.693 41.2276 10.8833 40.6895 10.2036 40.0118C9.52381 39.334 8.9876 38.5302 8.62603 37.6469C8.26446 36.7636 8.08475 35.8184 8.09731 34.8662C8.09731 33.4378 8.4937 32.0179 9.10306 30.6779C9.49954 29.8187 9.96555 28.9922 10.4966 28.2064C12.4404 25.2987 14.9283 23.141 15.4035 22.7436C15.8762 23.141 18.3703 25.2975 20.3141 28.2028C20.8455 28.9886 21.3111 29.8155 21.7064 30.6755C22.3145 32.0143 22.7109 33.4354 22.7109 34.8662Z" fill="white"/>
<path d="M40.3547 16.7004C41.2928 15.9008 42.5103 15.4731 43.8841 15.4731C45.6346 15.4731 47.2596 16.0571 48.3528 17.5025C49.4459 16.1795 51.0709 15.4731 52.9765 15.4731C54.5079 15.4731 55.9446 15.873 57.007 16.8567C57.9758 17.7169 58.5691 19.132 58.5691 21.1613V29.3404C58.566 29.4619 58.5156 29.5775 58.4283 29.6634C58.341 29.7493 58.2235 29.7989 58.1001 29.802H54.9142C54.8523 29.8032 54.7908 29.792 54.7333 29.7692C54.6759 29.7464 54.6237 29.7125 54.5799 29.6694C54.5361 29.6263 54.5016 29.5749 54.4785 29.5184C54.4553 29.4619 54.444 29.4013 54.4452 29.3404V22.173C54.4452 21.2207 54.2888 20.2672 53.8198 19.6517C53.4763 19.2216 52.9138 18.8836 52.0077 18.8836C51.6076 18.8716 51.2119 18.9687 50.8643 19.1641C50.5167 19.3595 50.2308 19.6457 50.0381 19.991C49.601 20.7288 49.4767 21.7731 49.4767 22.9726V29.338C49.4736 29.4594 49.4232 29.5751 49.3359 29.661C49.2486 29.7469 49.1311 29.7965 49.0077 29.7996H45.8218C45.7599 29.8006 45.6985 29.7893 45.6411 29.7665C45.5838 29.7436 45.5316 29.7096 45.4879 29.6666C45.4441 29.6235 45.4096 29.5722 45.3864 29.5158C45.3632 29.4593 45.3517 29.3989 45.3527 29.338V22.173C45.3527 21.2207 45.1964 20.2672 44.7286 19.6517C44.3851 19.2216 43.8226 18.8836 42.9165 18.8836C41.9785 18.8836 41.3543 19.344 40.9469 19.991C40.5406 20.6973 40.4163 21.7126 40.3843 22.8805V29.338C40.3812 29.4594 40.3308 29.5751 40.2435 29.661C40.1562 29.7469 40.0387 29.7965 39.9153 29.7996H36.7306C36.6687 29.8007 36.6071 29.7896 36.5497 29.7668C36.4923 29.744 36.4401 29.71 36.3963 29.667C36.3525 29.6239 36.318 29.5725 36.2949 29.516C36.2717 29.4595 36.2604 29.3989 36.2616 29.338V16.177C36.2578 16.1155 36.2673 16.0539 36.2896 15.9963C36.3118 15.9386 36.3462 15.8863 36.3906 15.8428C36.4349 15.7993 36.4882 15.7655 36.5468 15.7437C36.6054 15.722 36.6681 15.7128 36.7306 15.7167H39.7922C39.854 15.7155 39.9154 15.7266 39.9727 15.7493C40.0301 15.7721 40.0822 15.8059 40.126 15.8489C40.1697 15.8918 40.2043 15.943 40.2275 15.9994C40.2507 16.0558 40.2622 16.1162 40.2612 16.177V16.7004H40.3547Z" fill="white"/>
<path d="M68.4527 15.4392C72.7613 15.4392 76.2009 18.2064 76.2009 22.7884C76.2009 27.3704 72.7638 30.1061 68.4527 30.1061C64.1416 30.1061 60.7354 27.3704 60.7354 22.7884C60.7354 18.2064 64.1404 15.4392 68.4527 15.4392ZM68.4527 26.6932C70.7018 26.6932 72.1077 25.0637 72.1077 22.7884C72.1077 20.5131 70.7018 18.8836 68.4527 18.8836C66.2036 18.8836 64.7965 20.5131 64.7965 22.7884C64.7965 25.0637 66.2024 26.6932 68.4527 26.6932Z" fill="white"/>
<path d="M78.891 8.85921H82.0769C82.2003 8.86228 82.3178 8.9119 82.4051 8.99781C82.4924 9.08372 82.5428 9.19935 82.5459 9.32081V29.3378C82.5428 29.4593 82.4924 29.5749 82.4051 29.6609C82.3178 29.7468 82.2003 29.7964 82.0769 29.7994H78.891C78.8291 29.8006 78.7676 29.7894 78.7101 29.7667C78.6527 29.7439 78.6005 29.7099 78.5567 29.6668C78.5129 29.6237 78.4784 29.5724 78.4553 29.5158C78.4321 29.4593 78.4208 29.3988 78.422 29.3378V9.32081C78.4208 9.25987 78.4321 9.19933 78.4553 9.14281C78.4784 9.08629 78.5129 9.03494 78.5567 8.99184C78.6005 8.94875 78.6527 8.91479 78.7101 8.892C78.7676 8.86921 78.8291 8.85806 78.891 8.85921Z" fill="white"/>
<path d="M96.0848 25.9249C96.4283 25.7408 96.6782 25.8038 96.8038 26.0461L97.8969 28.0451C97.9384 28.1567 97.9392 28.2789 97.8992 28.3909C97.8592 28.5029 97.781 28.5978 97.6778 28.6594C96.5219 29.459 94.3983 30.1048 92.3043 30.1048C89.8989 30.1048 87.9612 29.3669 86.6182 28.0451C85.2751 26.7536 84.5254 24.8467 84.5254 22.6029C84.5254 20.4815 85.3366 18.6981 86.6182 17.4066C87.8369 16.1757 89.6182 15.4379 91.8673 15.4379C94.4599 15.4379 96.272 16.3913 97.3971 17.8985C98.4275 19.2821 98.7402 21.372 98.7094 23.5249C98.7132 23.5865 98.7036 23.6481 98.6814 23.7058C98.6592 23.7635 98.6247 23.8159 98.5804 23.8595C98.5361 23.9032 98.4829 23.937 98.4242 23.9589C98.3656 23.9808 98.303 23.9902 98.2404 23.9865H88.8993C89.0556 24.7861 89.3363 25.3701 89.8361 25.8619C90.4615 26.5077 91.4611 26.8772 92.617 26.8772C93.9921 26.8784 95.0532 26.5089 96.0848 25.9249ZM94.7098 21.3126C94.701 20.6396 94.4587 19.9898 94.0229 19.4711C93.5538 18.9792 92.8041 18.6412 91.8981 18.6412C90.9613 18.6412 90.118 18.9477 89.649 19.4711C89.2087 19.9964 88.937 20.6387 88.8685 21.3163L94.7098 21.3126Z" fill="white"/>
<path d="M111.767 25.8318C112.08 25.6476 112.33 25.7106 112.454 25.9529L113.61 28.1676C113.733 28.3821 113.642 28.5977 113.423 28.7516C112.267 29.5815 110.518 30.1037 108.58 30.1037C105.956 30.1037 103.894 29.3041 102.488 27.8599C101.301 26.5987 100.614 24.8456 100.614 22.7557C100.614 20.9384 101.208 19.4034 102.176 18.2355C103.645 16.4545 106.018 15.4731 108.674 15.4731C110.611 15.4731 112.204 16.0571 113.36 16.8567C113.579 17.0106 113.673 17.2202 113.549 17.471L112.33 19.716C112.236 19.9316 111.924 19.9934 111.643 19.8371C110.643 19.2216 109.797 18.9139 108.674 18.9139C107.518 18.9139 106.518 19.344 105.831 20.083C105.168 20.8192 104.811 21.7744 104.832 22.7581C104.832 23.8958 105.201 24.8795 105.862 25.5556C106.518 26.2631 107.487 26.6932 108.674 26.6932C109.831 26.6932 110.736 26.417 111.767 25.8318Z" fill="white"/>
<path d="M115.893 16.177C115.891 16.1162 115.903 16.0558 115.926 15.9995C115.949 15.9431 115.983 15.8919 116.027 15.8489C116.071 15.8059 116.123 15.772 116.18 15.7493C116.237 15.7266 116.299 15.7155 116.36 15.7166H119.548C119.609 15.7155 119.671 15.7266 119.728 15.7493C119.786 15.772 119.838 15.8059 119.881 15.8488C119.925 15.8918 119.96 15.943 119.983 15.9994C120.006 16.0557 120.018 16.1162 120.017 16.177V23.4692C120.017 24.2689 120.14 24.8528 120.423 25.3762C120.829 26.1443 121.64 26.6677 122.953 26.6677C124.265 26.6677 125.077 26.1443 125.516 25.3762C125.796 24.8528 125.921 24.2689 125.921 23.4692V16.177C125.917 16.1155 125.927 16.054 125.949 15.9964C125.971 15.9389 126.006 15.8867 126.05 15.8432C126.094 15.7997 126.148 15.7659 126.206 15.7441C126.265 15.7223 126.327 15.7129 126.39 15.7166H129.577C129.639 15.7155 129.7 15.7266 129.757 15.7493C129.815 15.772 129.867 15.8059 129.911 15.8488C129.954 15.8918 129.989 15.943 130.012 15.9994C130.035 16.0557 130.047 16.1162 130.046 16.177V23.7418C130.046 25.5591 129.608 26.8785 128.795 27.8926C127.578 29.3997 125.516 30.106 122.953 30.106C120.423 30.106 118.361 29.3997 117.142 27.8926C116.33 26.8785 115.893 25.5555 115.893 23.7418V16.177Z" fill="white"/>
<path d="M133.074 8.85921H136.26C136.383 8.86199 136.501 8.91151 136.588 8.99748C136.675 9.08345 136.726 9.19926 136.729 9.32081V29.3378C136.726 29.4594 136.675 29.5752 136.588 29.6612C136.501 29.7471 136.383 29.7967 136.26 29.7994H133.074C133.012 29.8006 132.95 29.7894 132.893 29.7667C132.835 29.7439 132.783 29.7099 132.739 29.6668C132.696 29.6237 132.661 29.5724 132.638 29.5158C132.615 29.4593 132.603 29.3988 132.605 29.3378V9.32081C132.603 9.25987 132.615 9.19933 132.638 9.14281C132.661 9.08629 132.696 9.03494 132.739 8.99184C132.783 8.94875 132.835 8.91479 132.893 8.892C132.95 8.86921 133.012 8.85806 133.074 8.85921Z" fill="white"/>
<path d="M150.192 25.9249C150.536 25.7408 150.786 25.8038 150.91 26.0461L152.004 28.0451C152.046 28.1567 152.046 28.2789 152.007 28.3909C151.967 28.5029 151.888 28.5978 151.785 28.6594C150.629 29.459 148.504 30.1048 146.412 30.1048C144.006 30.1048 142.069 29.3669 140.726 28.0451C139.381 26.7536 138.633 24.8467 138.633 22.6029C138.633 20.4815 139.445 18.6981 140.726 17.4066C141.944 16.1757 143.724 15.4379 145.975 15.4379C148.567 15.4379 150.379 16.3913 151.504 17.8985C152.535 19.2821 152.848 21.372 152.817 23.5249C152.82 23.5864 152.811 23.648 152.788 23.7056C152.766 23.7632 152.732 23.8155 152.687 23.8591C152.643 23.9027 152.59 23.9366 152.531 23.9585C152.473 23.9805 152.41 23.99 152.348 23.9865H143.005C143.162 24.7861 143.444 25.3701 143.943 25.8619C144.569 26.5077 145.568 26.8772 146.724 26.8772C148.098 26.8784 149.161 26.5089 150.192 25.9249ZM148.817 21.3126C148.809 20.6384 148.567 19.9871 148.13 19.4674C147.661 18.9756 146.911 18.6375 146.005 18.6375C145.067 18.6375 144.224 18.9441 143.756 19.4674C143.318 19.9593 143.068 20.6051 142.975 21.3126H148.817Z" fill="white"/>
</g>
<defs>
<clipPath id="clip0">
<rect width="153" height="45" fill="white"/>
</clipPath>
</defs>
</svg>
